# xmcd
#
# Track frame offsets:
#	175
#	9632
#	24095
#	34475
#	48685
#	62192
#	77062
#	90225
#	111300
#	121812
#	133915
#	144660
#	160240
#	170830
#	185027
#	201855
#
# Disc length: 2927 seconds
#
# Revision: 0
# Processed by: cddbd v1.5.1PL0 Copyright (c) Steve Scherf et al.
# Submitted via: MusicWizard 7.2.0
#
DISCID=e50b6d10
DTITLE=Various Artist - Truckin' Music -.Love that ..
DYEAR=1900
DGENRE=Country
TTITLE0=Terry Fell - Truck Drivin' Man
TTITLE1=Harding - My Diesel Friend
TTITLE2=J. Simpson - Bullschippers
TTITLE3=Anderson/Weston - Moving Kind
TTITLE4=Harrison - 15 Gears And 14 Wheels
TTITLE5=D. Faulkerson - Tombstone Every Mile
TTITLE6=Hall - I Miss A Lot Of Trains
TTITLE7=John Denver - Back Home Again
TTITLE8=Horton - Big Wheel Cannonball
TTITLE9=Horton - Goin' Down The Road
TTITLE10=Green/Green - Give Me Forty Acres
TTITLE11=Rowland - The Man From Snowy River
TTITLE12=Traditional - Andy's Gone With Castle
TTITLE13=Traditional - Flash Back From Gundagai
TTITLE14=Williamson - True Blue
TTITLE15=N. Nicholls - You've Gotta Have A Beer Mate
EXTD=
EXTT0=
EXTT1=
EXTT2=
EXTT3=
EXTT4=
EXTT5=
EXTT6=
EXTT7=
EXTT8=
EXTT9=
EXTT10=
EXTT11=
EXTT12=
EXTT13=
EXTT14=
EXTT15=
PLAYORDER=
